<!-- icon666.com - MILLIONS OF FREE VECTOR ICONS --><svg clip-rule="evenodd" fill-rule="evenodd" image-rendering="optimizeQuality" shape-rendering="geometricPrecision" text-rendering="geometricPrecision" viewBox="0 0 2667 2667" xmlns="http://www.w3.org/2000/svg"><g id="Layer_x0020_1"><circle cx="1333" cy="1333" fill="#ff291a" r="1333"></circle><path d="m2187 581v1504c0 13-11 24-24 24h-1660c-13 0-23-11-23-24v-1504c0-12 10-23 23-23h1660c13 0 24 11 24 23zm-700 445c0-56-46-102-102-102h-103c-56 0-102 46-102 102v84c-24 10-47 24-67 39l-72-41c-23-15-53-18-78-11-26 6-51 24-63 49l-51 88c-28 48-11 111 37 139l73 42c-1 26-3 50 0 77l-55 32c-55 32-93 84-55 149l52 90s54 86 142 35l69-40c21 15 44 28 68 39v84c0 56 46 102 102 102h103c56 0 102-46 102-102v-84c24-10 46-24 67-39l71 41c23 15 54 18 79 11s50-24 63-49l51-88c28-48 11-111-38-139l-72-42c0-25 2-53 0-77l66-39c5-3 11-6 15-9 42-31 55-88 29-133l-52-90c-28-49-90-65-139-37l-73 42c-21-15-43-29-67-39zm-154 132c163 0 295 132 295 295 0 130-83 239-198 279v-139c22-14 41-34 54-57 16-26 24-56 24-89 0-35-10-68-29-96-19-29-46-51-78-65 1-1-20-6-28 11-1 3-1 6-1 9v116l-39 25-38-25v-116c0-12-10-22-21-22-4 0-8 1-11 3-31 14-57 36-76 64-18 28-29 61-29 96 0 33 9 63 24 89 14 23 33 43 55 58v138c-116-40-199-149-199-279 0-163 132-295 295-295zm-806-312h1613v1216h-1613zm586-147c0-13 10-23 23-23h876c13 0 23 10 23 23s-10 24-23 24h-876c-13 0-23-11-23-24zm-389 0c0 13-10 24-23 24h-46c-13 0-24-11-24-24s11-23 24-23h46c13 0 23 10 23 23zm135 0c0 13-11 24-24 24h-46c-13 0-23-11-23-24s10-23 23-23h46c13 0 24 10 24 23zm134 0c0 13-10 24-23 24h-47c-13 0-23-11-23-24s10-23 23-23h47c13 0 23 10 23 23z" fill="#fff"></path></g></svg>